<svg width="1920" height="424" viewBox="0 0 1920 424" fill="none" xmlns="http://www.w3.org/2000/svg">
<path d="M1284.76 86.8111C1305.93 103.51 1318.15 127.34 1318.15 152.045V424.737H1413.24V152.107C1413.24 112.767 1393.25 75.3656 1357.05 46.7829C1318.84 16.6367 1267.6 0 1212.85 0C1158.1 0 1106.86 16.6367 1068.65 46.7829C1032.44 75.3656 1012.46 112.767 1012.46 152.107V424.799H1107.55V152.107C1107.55 127.34 1119.7 103.573 1140.94 86.8737C1160.42 71.4878 1185.98 62.9818 1212.91 62.9818C1239.85 62.9818 1265.34 71.4878 1284.89 86.8737L1284.76 86.8111Z" fill="white"/>
<path d="M778.561 86.8111C799.733 103.51 811.948 127.34 811.948 152.045V424.737H907.037V152.107C907.037 112.767 887.055 75.3656 850.848 46.7829C812.637 16.6367 761.397 0 706.649 0C651.901 0 600.661 16.6367 562.45 46.7829C526.244 75.3656 506.262 112.767 506.262 152.107V424.799H601.35V152.107C601.35 127.34 613.503 103.573 634.738 86.8737C654.219 71.4878 679.776 62.9818 706.712 62.9818C733.647 62.9818 759.142 71.4878 778.686 86.8737L778.561 86.8111Z" fill="white"/>
<path d="M400.838 424.799V152.107C400.838 112.767 380.855 75.3656 344.649 46.7829C306.438 16.6367 255.198 0 200.388 0C145.577 0 94.3995 16.6367 56.1887 46.7829C19.9824 75.3656 0 112.767 0 152.107V424.799H95.0886V304.214H305.687V424.799H400.775H400.838ZM95.0886 241.232V152.107C95.0886 127.34 107.241 103.573 128.476 86.8737C147.957 71.4878 173.515 62.9818 200.45 62.9818C227.386 62.9818 252.881 71.4878 272.424 86.8737C293.597 103.573 305.812 127.402 305.812 152.107V241.232H95.0886Z" fill="white"/>
<path d="M1863.81 48.4704C1825.6 18.3242 1774.36 1.6875 1719.61 1.6875C1664.87 1.6875 1613.63 18.3242 1575.42 48.4704C1539.21 77.053 1519.23 114.454 1519.23 153.795V291.954C1519.23 331.294 1539.21 368.696 1575.42 397.278C1613.63 427.425 1664.87 444.061 1719.61 444.061C1774.36 444.061 1825.6 427.425 1863.81 397.278C1900.02 368.696 1920 331.294 1920 291.954V153.795C1920 114.454 1900.02 77.053 1863.81 48.4704ZM1824.91 214.087V291.892C1824.91 316.659 1812.76 340.426 1791.53 357.125C1772.04 372.511 1746.49 381.017 1719.55 381.017C1692.62 381.017 1667.12 372.511 1647.58 357.125C1626.4 340.426 1614.19 316.597 1614.19 291.892V153.732C1614.19 128.965 1626.34 105.198 1647.58 88.4986C1667.06 73.1128 1692.62 64.6068 1719.55 64.6068C1746.49 64.6068 1771.98 73.1128 1791.53 88.4986C1812.7 105.198 1824.91 129.027 1824.91 153.732V214.024V214.087Z" fill="white"/>
</svg>
